<?xml version="1.0" encoding="UTF-8"?><svg id="Layer_2" xmlns="http://www.w3.org/2000/svg" viewBox="0 0 542 391"><g id="Layer_1-2"><path d="M354,0c1.04,1.66,3.8,1,5.49,1.02,24.47.26,51.97-1.6,76,2,10.05,1.5,20.23,4.74,17.3,17.28-2.87,12.31-40.71,27.68-51.81,34.22-1.29.76-2.52-.18-1.97,2.48,17.04-2.81,34.24-3.27,51.48-4.01,21.66-.92,45.28-2.49,67-.98,11.09.77,27.65,3.69,23.05,19.04-2.4,8.01-17.69,13.87-24.86,17.13-56.76,25.85-119.07,43.5-176.19,68.81-4.52,9.44-8.82,4.27-15.73,5.23-9.65,1.33-30.06,10.69-40.99,14.05-12.11,3.72-30.55,6.21-40.68,12.32-2.74,1.65-19.44,13.7-20.66,15.34-.68.92-1.16,1.29-1.41,2.59-2.77,14.7,9.6,43.98,12.66,60.29,6.08,32.43,5.09,75.1-1.96,107.41-1.5,6.87-3.56,12.81-9.72,16.78h-5c-8.46-3.4-9.45-17.3-9.99-25.51-2.56-38.62,1.27-82.03,2.03-120.95.2-10.28.92-19.67-5.13-28.48l-79.44,39.93c-2.44,3.92,7.49,29.1,5.05,34.01-.97,1.96-3.9,2.53-5.86,1.87-4.17-1.4-8.05-24.37-10.85-29.18-.58-1-.86-1.83-2.27-1.7-23.39,8.32-49.04,21.14-73.51,25.55-5.89,1.06-22.62,3.82-22.02-5.96.39-6.31,18.28-11.62,23.98-12.07l66.7-27.95c-17.11-56.4-42.73-109.93-80.19-155.57-8.17-9.96-18.53-18.49-24.52-29.98v-2c3.52-10.85,12.48-9.77,22.22-8.72,41.08,4.39,86.67,28.58,127.26,37.79,7.99-1.99,14.25-1.85,21.98-2.02,16.83-.39,10.59-1.06,19.56-11.52,18.97-22.11,29.45-10.79,31.02,13.94.44,6.98-1.66,24.92,1.89,29.85,1.28,1.78,13.16,6.45,16.07,7.69v-16.5c0-1.62,2.18-4.45,3.94-5.06,7.02-2.43,8.67,2.87,11.24,7.89,1.15,2.24,14.6,36.98,16.82,34.67,5.21-17.33,4.9-35.66,7.02-53.49.47-3.97,1.36-15.25,4.99-17,9.17-4.41,11.01,11.39,19.99,2.94-8.05-15.55-19.79-30.47-32.97-41.96-4.52-3.94-19.1-12.86-20.57-17.43-4.43-13.77,18.01-13.45,26.14-13.01l2.42-1.04h75ZM431,18.99c-.38-1.82-1.97-1.86-3.46-2.02-19.57-2.18-40.43.58-60-2l-93.54,2.05c14.89,15.98,28.16,33.28,39.52,51.99l1.94,1.01c39.46-14.87,78.15-31.61,115.54-51.02ZM109.99,171l9.5,63.97,72.49-38.47c-14.26-23.84-35.83-47.15-48.15-71.83-4.3-8.63-5.66-15-5.31-24.69L27.01,64l31.8,48.69c21.95,38.99,38.3,80.81,52.21,123.29,1.89.2.8-2.1.7-3.2-1.26-14.03-4.16-28.17-4.75-42.25-.18-4.27-.64-13.29.05-17.03.31-1.72,1.06-2.81,2.99-2.5ZM489.99,72.01c-50.34-1.76-103.43-.58-152.42,12.06-2.29.59-13.24,3.23-13.52,4.5l14.55,43.5,151.39-60.06ZM205.99,73.01c-1.67-.38-2.03.53-2.98,1.51-2.97,3.06-15.02,18.52-15.05,21.93l18.52,7.57-.49-31.01ZM180,85.01c-1.8-.65-13.2,2.64-11,4.98l7.96,2,3.04-6.98ZM326.99,136.99c-1.76-15.83-6.13-31.68-13.96-45.57l-7.9,3.04c5.9,13.32,10.86,28.69,19.27,40.65.84,1.19.04,2.45,2.59,1.87ZM265,160.99l46.97-18.55c-3.15-4.85-18.26-42.67-20.56-43.36-1.57-.47-2.66.04-3.25,1.58-1.88,14.4-.94,30.77-6.68,44.32-3.46,8.18-5.25,9.31-14.55,9.45l-1.93,6.56ZM167.99,130.99l.55-21.04-12.54-3.95c-2.51,2.7,7.22,20.56,9.71,23.73.64.81-.03,1.84,2.28,1.26ZM207.86,183.85v-58.22c-2.94-2.17-26.23-11.95-27.81-10.59-1.43,7.36-2.75,14.88-2.04,22.45.33,3.52,1.53,12.59,6,11.52-.8,1.88-2.09,2.6-1.59,5,1.65,7.81,14.69,21.84,18.09,29.98,2.03,2.01,5.06.83,7.35-.14ZM237.01,154c4.5-4.88,2.64-15.46-5.01-15.99l5.01,15.99ZM222,178l8.87-6.6c-2.47-6.54-3.85-13.76-6.6-20.17-.53-1.24-.53-2.96-2.27-3.23v30ZM220,269v76c1.43-.59,1.62-5.06,1.86-6.64,2.2-14.68,2.22-30.01,2.13-44.85l-3.99-24.51Z"/></g></svg>